<?xml version="1.0" encoding="UTF-8"?>
<svg id="Layer_1" xmlns="http://www.w3.org/2000/svg" version="1.1" viewBox="0 0 100.7 80">
  <!-- Generator: Adobe Illustrator 29.7.1, SVG Export Plug-In . SVG Version: 2.1.1 Build 8)  -->
  <path d="M27.3,68.6c0-.4.4-.3.7-.3,2-.5,4-.1,5.3-2.2s.4-5.2-.3-7.4c-1.9-5.9-4.7-11.5-6.6-17.4-.4,0-.2.5-.2.8,1.2,9.5-.7,23-11.1,26.8-12.7,4.6-19.7-8.5-11.6-18.2,4.2-5,10.5-7.4,15.3-11.4s4.3-4.1,1.7-4.9-5,6.6-8.4,5.2-.2-2.7,0-3.8l8.3-21.5.7.7,18.1,47.6c1.5,3.2,2.2,4.4,5.5,5.7s.6-.1.5.5h-17.8ZM18.7,20.7l-.7.6c-1.3,4.9-3.9,9.7-5.3,14.5s-1.2,2.8,0,3.4c2.5.7,5.3-7,8.4-5.3s-.5,5.1-1.8,6.3c-4.8,4.3-11.2,6.4-13.9,13-4.8,11.9,8.1,18.8,15.6,9.9,5.4-6.5,6.1-18.7,3.6-26.4s-4.3-10.6-6-16Z"/>
  <path d="M77.1,15.3c-.6.8-2,.6-2.8,1.2s-1.4,2.1-1.6,2.9-.6,2.8-.6,3.5v45.2c7.1,0,14.6.3,21.4-1.9s5.3-2.1,6.7-5.6,0-.7.5-.6v8.7h-38.2c.4-.7,1.3-.6,2-.9,1.9-.9,2.3-3,2.6-4.9s.4-4.3.5-6.1c.4-9.4.4-20.5,0-29.9s-.3-6.7-1-8.5-1.8-2-3.5-2.5-.6.2-.5-.5h14.6Z"/>
  <rect x="10.6" y="39.4" width="80" height="1.2" transform="translate(10.4 90.4) rotate(-89.8)"/>
</svg>